<?xml version="1.0" encoding="UTF-8"?>
<svg version="1.1" xmlns="http://www.w3.org/2000/svg" width="425" height="409">
<path d="M0 0 C140.25 0 280.5 0 425 0 C425 134.97 425 269.94 425 409 C284.75 409 144.5 409 0 409 C0 274.03 0 139.06 0 0 Z " fill="#FEFEFE" transform="translate(0,0)"/>
<path d="M0 0 C12.43661656 -0.73727212 20.89170623 7.39920015 30.140625 14.640625 C34.6936491 18.20217901 39.33632002 21.62975848 44.00390625 25.0390625 C51.70363496 30.67942371 59.30636478 36.43771843 66.8840332 42.24072266 C73.70624957 47.45498573 80.59698308 52.56953648 87.5390625 57.62304688 C88.26867187 58.15607422 88.99828125 58.68910156 89.75 59.23828125 C90.43690918 59.7389209 91.12381836 60.23956055 91.83154297 60.75537109 C93.65738726 62.15269617 95.33856586 63.63831593 97.0390625 65.18359375 C99.45070105 67.48180037 99.45070105 67.48180037 101.69482422 67.02099609 C103.97328849 66.1419206 105.51185412 65.08782009 107.4140625 63.55859375 C108.1150708 63.00252441 108.8160791 62.44645508 109.53833008 61.87353516 C110.29009521 61.26815918 111.04186035 60.6627832 111.81640625 60.0390625 C118.15026176 55.02264379 124.53996787 50.11487616 131.06640625 45.3515625 C137.88061656 40.37032412 144.61764699 35.29945082 151.31640625 30.1640625 C160.66882272 23.00353777 170.15726324 16.05537352 179.75390625 9.2265625 C180.80964844 8.47117187 181.86539063 7.71578125 182.953125 6.9375 C191.26979151 1.03691617 196.315929 -0.71141241 206.75390625 0.2265625 C213.48439257 1.69537029 217.83817218 4.63961062 222.28125 9.8359375 C227.36951147 18.09592694 227.18358703 26.15590866 227.14208984 35.54345703 C227.14615984 37.09153615 227.15150412 38.63961235 227.15802002 40.18768311 C227.1716463 44.37350221 227.16641506 48.55909842 227.15688276 52.74492121 C227.14926451 57.13300311 227.15633753 61.52106648 227.16104126 65.90914917 C227.16649136 73.27459119 227.15932558 80.63994281 227.14501953 88.00537109 C227.12868231 96.51468995 227.13399227 105.02379326 227.15049875 113.53310692 C227.16412041 120.84881912 227.16603032 128.16446651 227.15818274 135.4801873 C227.15351152 139.84541029 227.15286644 144.210532 227.16279221 148.57574844 C227.17146994 152.67821327 227.16542536 156.78040049 227.14810944 160.88283539 C227.14414941 162.38644577 227.14527037 163.89007959 227.15189743 165.39368057 C227.16012231 167.44962617 227.14978157 169.50468778 227.13485718 171.56057739 C227.1337261 172.70980242 227.13259502 173.85902744 227.13142967 175.04307747 C226.50094894 180.3596376 224.34541254 184.2104743 220.19140625 187.5390625 C219.59199219 188.03019531 218.99257813 188.52132812 218.375 189.02734375 C204.5291254 199.2699546 183.97654601 191.2265625 166.75390625 191.2265625 C166.42390625 159.5465625 166.09390625 127.8665625 165.75390625 95.2265625 C158.82390625 100.5065625 151.89390625 105.7865625 144.75390625 111.2265625 C135.25390625 118.2265625 135.25390625 118.2265625 130.625 121.6171875 C124.21296809 126.34058985 117.90384938 131.20068792 111.60546875 136.07421875 C110.35056641 137.03908203 110.35056641 137.03908203 109.0703125 138.0234375 C107.96345093 138.87953613 107.96345093 138.87953613 106.83422852 139.75292969 C104.86991364 141.14438663 102.93533375 142.2181871 100.75390625 143.2265625 C90.36346186 135.46116133 79.99814769 127.6653201 69.69140625 119.7890625 C61.77880135 113.74777862 53.81735671 107.81102041 45.69140625 102.05859375 C30.65591379 91.40198328 16.01530063 80.2141547 1.37158203 69.02832031 C-4.87150352 64.26215698 -11.14323547 59.53608873 -17.45019531 54.85473633 C-19.84391554 53.0708872 -22.13193078 51.34072547 -24.24609375 49.2265625 C-24.64637672 45.20096119 -24.57504389 41.1688668 -24.56176758 37.125 C-24.55863859 35.13015274 -24.5828324 33.13532316 -24.60742188 31.140625 C-24.61237385 21.35551768 -23.73409767 14.15538853 -16.91796875 6.765625 C-11.85221027 2.10228659 -6.73009794 0.67886205 0 0 Z " fill="#E53A36" transform="translate(109.24609375,101.7734375)"/>
<path d="M0 0 C0.07011443 16.58548183 0.12300006 33.17091551 0.15543652 49.75650978 C0.17089836 57.45767805 0.19197475 65.15875416 0.22631836 72.85986328 C0.25624171 79.57299308 0.27557997 86.28605613 0.28226548 92.99925077 C0.2861728 96.55309842 0.29534109 100.10675514 0.31719017 103.66054153 C0.34139646 107.63001302 0.3419681 111.59929856 0.34057617 115.56884766 C0.351362 116.74417053 0.36214783 117.91949341 0.3732605 119.13043213 C0.3478439 125.81900168 0.03965767 130.77078684 -4.75390625 135.86328125 C-5.35074219 136.34152344 -5.94757813 136.81976563 -6.5625 137.3125 C-7.16191406 137.80363281 -7.76132812 138.29476562 -8.37890625 138.80078125 C-11.26909826 140.93882691 -13.08940299 141.12280261 -16.63330078 141.11352539 C-17.59414581 141.11344986 -18.55499084 141.11337433 -19.54495239 141.11329651 C-20.58457123 141.10813522 -21.62419006 141.10297394 -22.6953125 141.09765625 C-23.75789276 141.0962413 -24.82047302 141.09482635 -25.91525269 141.09336853 C-29.31853009 141.08775834 -32.72174238 141.07520409 -36.125 141.0625 C-38.42838447 141.05748631 -40.73176997 141.05292318 -43.03515625 141.04882812 C-48.69012649 141.0377856 -54.34505859 141.02103752 -60 141 C-60.41847927 128.44820499 -60.73757265 115.89808736 -60.93261909 103.34071827 C-61.02627715 97.50823658 -61.15308518 91.68055065 -61.35791016 85.85083008 C-61.55463694 80.21582874 -61.66133002 74.5854125 -61.70779037 68.94724083 C-61.74085715 66.80532291 -61.80544648 64.66363547 -61.90314102 62.52369118 C-62.61751588 46.21541335 -62.61751588 46.21541335 -58.2389431 40.83667946 C-53.95544694 36.91565464 -49.19742582 33.976437 -44.11879635 31.19861984 C-41.29598646 29.60173397 -38.85285197 27.73967359 -36.31640625 25.72265625 C-35.52339111 25.11357422 -34.73037598 24.50449219 -33.91333008 23.87695312 C-33.13755615 23.27818359 -32.36178223 22.67941406 -31.5625 22.0625 C-24.51232596 16.66343764 -17.44081007 11.29560826 -10.3125 6 C-9.50433838 5.39422119 -8.69617676 4.78844238 -7.86352539 4.16430664 C-7.12094482 3.61508545 -6.37836426 3.06586426 -5.61328125 2.5 C-4.96141846 2.0153125 -4.30955566 1.530625 -3.63793945 1.03125 C-2 0 -2 0 0 0 Z " fill="#4DAF51" transform="translate(336,152)"/>
<path d="M0 0 C1.44638835 0.95565071 2.89164732 1.9130109 4.33642578 2.87109375 C5.14137482 3.40404053 5.94632385 3.9369873 6.77566528 4.48608398 C9.27626551 6.18803051 11.5799705 8.03056292 13.875 10 C19.59731855 14.76327075 25.56473935 19.14732915 31.57397461 23.5402832 C39.23096593 29.14541588 46.77265617 34.89361916 54.28686523 40.68823242 C55.98167681 42.07748714 55.98167681 42.07748714 58.07868958 43.00418091 C61.21336694 46.26042146 60.52384982 49.89813516 60.45410156 54.24487305 C60.45468567 55.19140747 60.45526978 56.13794189 60.45587158 57.11315918 C60.45308158 60.24638353 60.42194587 63.37866029 60.390625 66.51171875 C60.38316588 68.68218974 60.3774714 70.85266746 60.37347412 73.02314758 C60.35819196 78.7394567 60.31888758 84.45536011 60.2746582 90.17150879 C60.23376135 96.00295523 60.21547503 101.83446715 60.1953125 107.66601562 C60.15239609 119.11085546 60.0841133 130.55539401 60 142 C57.61230469 142.03730774 57.61230469 142.03730774 55.22460938 142.07461548 C54.21039917 142.0905242 53.19618896 142.10643291 52.15124512 142.12282372 C49.93681596 142.15729902 47.72237894 142.19127231 45.50793457 142.22475624 C38.65597093 142.32786444 38.65597093 142.32786444 31.8046875 142.46746826 C28.70262999 142.53540523 25.60267532 142.56631025 22.5 142.5859375 C21.48292969 142.6166333 20.46585938 142.6473291 19.41796875 142.67895508 C13.2793411 142.68343365 9.50805621 141.76808933 4.63867188 137.97549438 C-0.81878616 131.39627748 -0.41523754 124.53915448 -0.34057617 116.36352539 C-0.34101425 115.1042926 -0.34145233 113.84505981 -0.34190369 112.54766846 C-0.34276087 109.11211193 -0.32518052 105.67687263 -0.30418181 102.24138951 C-0.28536847 98.64462109 -0.28366092 95.04784458 -0.28010559 91.45103455 C-0.27079875 84.64779057 -0.24620355 77.84469203 -0.21605712 71.04151195 C-0.18247059 63.2930291 -0.16601644 55.54453913 -0.15097082 47.79600155 C-0.11965266 31.86391695 -0.06691884 15.93197726 0 0 Z " fill="#2089E5" transform="translate(85,151)"/>
<path d="M0 0 C6.43315557 2.97075802 10.19129601 7.55677113 13.25 13.8359375 C16.85301458 24.07796113 16.67458239 37.84475778 14.625 48.5 C12.23257664 53.31157771 7.58486464 55.16375579 2.91455078 57.30126953 C-1.66815652 59.70061831 -5.58284138 63.11210286 -9.625 66.3125 C-17.18394375 72.13108253 -24.83717209 77.79935096 -32.60253906 83.33911133 C-33.29057617 83.83048584 -33.97861328 84.32186035 -34.6875 84.828125 C-35.32558594 85.28380859 -35.96367187 85.73949219 -36.62109375 86.20898438 C-38.20362914 87.37385731 -39.7309906 88.61279663 -41.25 89.859375 C-43.375 91.5 -43.375 91.5 -45.375 91.5 C-45.92564537 82.07897845 -46.37470161 72.65990285 -46.69877052 63.22835255 C-46.85241251 58.84711282 -47.03922539 54.47286815 -47.30566406 50.09692383 C-48.99225925 21.83686558 -48.99225925 21.83686558 -44.65725708 14.65365601 C-40.58185605 10.32698609 -35.93197933 7.68508258 -30.48194885 5.41902161 C-27.71395107 4.21165971 -25.44376825 2.52785695 -23.0625 0.6875 C-15.92741855 -3.37740871 -7.56229546 -2.55141275 0 0 Z " fill="#FAC02E" transform="translate(321.375,103.5)"/>
<path d="M0 0 C5.59801127 -0.33186338 9.84668721 0.36530865 14.63012695 3.36499023 C17.51195679 5.17368188 17.51195679 5.17368188 19.77027893 6.0973053 C26.08434345 8.82752542 31.28880879 12.13473201 34.75390625 18.2265625 C37.52067316 29.78236733 36.43577597 42.11090824 35.92120361 53.88635254 C35.74592055 58.32324971 35.66937282 62.76179606 35.58398438 67.20117188 C35.4027348 75.88084333 35.11345107 84.55245383 34.75390625 93.2265625 C31.66055704 91.72559693 29.05993852 90.05566911 26.33203125 87.953125 C25.47955811 87.29924805 24.62708496 86.64537109 23.7487793 85.97167969 C22.84297119 85.27204102 21.93716309 84.57240234 21.00390625 83.8515625 C19.09932519 82.39014677 17.19437399 80.92921331 15.2890625 79.46875 C14.34820801 78.74655273 13.40735352 78.02435547 12.43798828 77.28027344 C8.78986936 74.48893485 5.11986537 71.7277337 1.44140625 68.9765625 C0.81186035 68.50508789 0.18231445 68.03361328 -0.46630859 67.54785156 C-3.12570203 65.55723443 -5.78689692 63.56905231 -8.44970703 61.58300781 C-9.95024126 60.46382304 -11.45033029 59.3440411 -12.94995117 58.22363281 C-14.36442042 57.16687652 -15.7798988 56.1114692 -17.1965332 55.05761719 C-19.67167625 53.20764401 -22.05781979 51.41483646 -24.24609375 49.2265625 C-24.64637672 45.20096119 -24.57504389 41.1688668 -24.56176758 37.125 C-24.55863859 35.13015274 -24.5828324 33.13532316 -24.60742188 31.140625 C-24.61237385 21.35551768 -23.73409767 14.15538853 -16.91796875 6.765625 C-11.85221027 2.10228659 -6.73009794 0.67886205 0 0 Z " fill="#C62929" transform="translate(109.24609375,101.7734375)"/>
<path d="M0 0 C1.98 0.99 1.98 0.99 4 2 C4 2.66 4 3.32 4 4 C3.34 4 2.68 4 2 4 C2.00444122 4.85999603 2.00888245 5.71999207 2.01345825 6.60604858 C2.05348445 14.69929279 2.08395862 22.79250389 2.10362434 30.8858242 C2.11407446 35.04697253 2.12825592 39.20803926 2.15087891 43.36914062 C2.17256371 47.38266429 2.18455937 51.39610933 2.18975449 55.40968704 C2.19345811 56.94314436 2.20069011 58.47659724 2.21146011 60.01002121 C2.22591729 62.15309801 2.2279804 64.29584736 2.22705078 66.43896484 C2.231492 67.66030121 2.23593323 68.88163757 2.24050903 70.13998413 C2 73 2 73 0 75 C0 50.25 0 25.5 0 0 Z " fill="#E25957" transform="translate(144,121)"/>
<path d="M0 0 C0.99 0.99 1.98 1.98 3 3 C2.67 3.33 2.34 3.66 2 4 C1.89180852 5.61915924 1.8531521 7.24300788 1.84178162 8.86573792 C1.8319928 9.91888184 1.82220398 10.97202576 1.81211853 12.05708313 C1.80636307 13.22233017 1.8006076 14.38757721 1.79467773 15.58813477 C1.78477814 16.80747711 1.77487854 18.02681946 1.76467896 19.28311157 C1.73842821 22.63624606 1.7165923 25.98935593 1.69667697 29.34253049 C1.67485523 32.84328389 1.64744795 36.34399333 1.62062073 39.8447113 C1.57064213 46.47806466 1.52572255 53.11144235 1.48259836 59.74484342 C1.43327005 67.29493329 1.37833563 74.84497907 1.32291877 82.39502633 C1.20901944 97.92997683 1.10219781 113.46496784 1 129 C0.67 129 0.34 129 0 129 C0 86.43 0 43.86 0 0 Z " fill="#2B8EE5" transform="translate(85,151)"/>
</svg>
